<svg id="Layer_1" data-name="Layer 1" xmlns="http://www.w3.org/2000/svg" viewBox="0 0 512 512"><title>cloud-magnifier-flat</title><g id="cloud-magnifier"><path d="M391.63,142.38c-7.88,0-17.59,3.17-26.16,6-1.73.57-3.41,1.12-5,1.62-20.88-54.34-67.06-89.19-118.8-89.19A133,133,0,0,0,109.31,181.09c-2.88-.25-5.53-.39-8.08-.39a101.22,101.22,0,1,0,0,202.43h93.47l-11-8.92A107.19,107.19,0,0,1,165.29,355l-1.51-2H101.24a71.1,71.1,0,1,1,9.41-141.47l26.88,3.55L139,188A102.81,102.81,0,0,1,241.67,90.89c48.82,0,80.1,39.61,92,73.53l7.67,21.78,22.35-5.84c3.49-.9,7.2-2.11,11.12-3.39,4.45-1.45,13.71-4.47,16.78-4.47a90.26,90.26,0,0,1,0,180.51H368.12L398,382.86l2.29-.17C462.92,378.25,512,325.56,512,262.76A120.51,120.51,0,0,0,391.63,142.38Z" fill="#90c8ea"/><path d="M250.37,200.25a91.18,91.18,0,1,0,91.27,91.28A91.32,91.32,0,0,0,250.37,200.25ZM299.82,341a70.76,70.76,0,0,1-13.43,10.41,69.4,69.4,0,0,1-72,0A70.77,70.77,0,0,1,200.92,341a69.92,69.92,0,1,1,98.9,0Z" fill="#90c8ea"/><path d="M409,445a21.12,21.12,0,0,1-29.86,0l-47.37-47.36,19.59-19.57,10.29-10.3,10.31,10.3,37,37.06A21.11,21.11,0,0,1,409,445Z" fill="#90c8ea"/><path d="M340.67,378.11l-14.25,14.24-6.27-6.28a20.75,20.75,0,0,1-4.94-8A21,21,0,0,1,318.63,358a20.34,20.34,0,0,1,1.51-1.83,21.08,21.08,0,0,1,29.86,0l1.84,1.83,4.45,4.45Z" fill="#90c8ea"/></g></svg>